<?xml version="1.0" encoding="UTF-8"?>
<svg version="1.1" xmlns="http://www.w3.org/2000/svg" width="701" height="701">
<path d="M0 0 C1.42810957 0.72497728 1.42810957 0.72497728 2.88506985 1.46460056 C4.42167263 2.22969189 4.42167263 2.22969189 5.98931789 3.0102396 C8.82641046 4.42537497 11.65882938 5.84939835 14.48952131 7.27728076 C17.59203522 8.83947363 20.70038626 10.38997544 23.80800629 11.94197845 C29.83644031 14.95486759 35.85967114 17.97801384 41.88113854 21.0047979 C48.84803154 24.50625763 55.82130433 27.99486839 62.794631 31.4835062 C81.19849028 40.69855704 99.59362363 49.93102655 117.98982143 59.16136265 C159.09544643 79.76573765 200.20107143 100.37011265 242.55232143 121.59886265 C242.55232143 269.43886265 242.55232143 417.27886265 242.55232143 569.59886265 C234.63232143 573.55886265 226.71232143 577.51886265 218.55232143 581.59886265 C212.80072304 584.63210783 212.80072304 584.63210783 207.05363369 587.67387486 C194.5481026 594.28917362 181.83426202 600.51071416 169.17374706 606.82238102 C165.24739758 608.78048623 161.32239832 610.74129408 157.39729214 612.70188999 C146.60840434 618.09036768 135.8174939 623.4747898 125.02654934 628.85914707 C115.1195245 633.8025083 105.21295459 638.7467759 95.30801201 643.69430828 C91.42218712 645.6351619 87.53594776 647.57517515 83.64866543 649.51310825 C68.48536779 657.07270097 53.34150122 664.64843136 38.39010525 672.62205982 C30.92694007 676.5888163 23.38817539 680.41287474 15.850173 684.23484898 C13.79323533 685.28193636 11.73991275 686.33615164 9.69001675 687.39695835 C6.67860871 688.95414957 3.65619355 690.48772922 0.63044643 692.0168314 C-0.28001438 692.49371906 -1.1904752 692.97060673 -2.12852573 693.46194553 C-7.3470784 696.06348329 -10.64680031 697.41402758 -16.44767857 695.59886265 C-20.18707642 694.02452844 -23.78935371 692.23076232 -27.40080357 690.3840189 C-28.45563938 689.85424946 -29.5104752 689.32448002 -30.59727573 688.77865696 C-33.96887259 687.08221606 -37.33318817 685.3718464 -40.69767857 683.66136265 C-42.91338145 682.54524849 -45.12952354 681.4300058 -47.34611607 680.31565952 C-63.5190521 672.16362475 -63.5190521 672.16362475 -70.31059361 668.54829502 C-85.34538482 660.55054283 -100.58679626 652.9726951 -115.82625294 645.37534428 C-119.75260242 643.41723907 -123.67760168 641.45643122 -127.60270786 639.4958353 C-137.54983211 634.5277739 -147.498658 629.56312513 -157.44767857 624.59886265 C-168.19664875 619.23544933 -178.94530012 613.87140232 -189.69198799 608.50341702 C-193.57781288 606.5625634 -197.46405224 604.62255015 -201.35133457 602.68461704 C-228.87983404 588.96044636 -228.87983404 588.96044636 -239.86564732 583.13792515 C-248.65569696 578.48884108 -257.55368259 574.04586063 -266.44767857 569.59886265 C-266.44767857 421.75886265 -266.44767857 273.91886265 -266.44767857 121.59886265 C-225.01205357 100.78823765 -183.57642857 79.97761265 -140.88517857 58.53636265 C-127.79273472 51.94917271 -114.70029087 45.36198277 -101.2111063 38.57518101 C-85.24662876 30.57261753 -85.24662876 30.57261753 -77.77740574 26.83422947 C-72.54658974 24.21461868 -67.3208438 21.58521222 -62.09832859 18.94909763 C-56.07740816 15.91002273 -50.05039997 12.88345467 -44.01548332 9.87226275 C-40.92754 8.33100577 -37.84271802 6.78424689 -34.76564777 5.22137916 C-31.47059871 3.55156452 -28.16527375 1.90417049 -24.85635471 0.2620554 C-23.89650197 -0.23097796 -22.93664923 -0.72401133 -21.94771004 -1.23198509 C-13.38095618 -5.42932351 -8.34811449 -4.12711123 0 0 Z " fill="#FDFDFD" transform="translate(362.447678565979,4.401137351989746)"/>
<path d="M0 0 C1.42810957 0.72497728 1.42810957 0.72497728 2.88506985 1.46460056 C4.42167263 2.22969189 4.42167263 2.22969189 5.98931789 3.0102396 C8.82641046 4.42537497 11.65882938 5.84939835 14.48952131 7.27728076 C17.59203522 8.83947363 20.70038626 10.38997544 23.80800629 11.94197845 C29.83644031 14.95486759 35.85967114 17.97801384 41.88113854 21.0047979 C48.84803154 24.50625763 55.82130433 27.99486839 62.794631 31.4835062 C81.19849028 40.69855704 99.59362363 49.93102655 117.98982143 59.16136265 C159.09544643 79.76573765 200.20107143 100.37011265 242.55232143 121.59886265 C242.55232143 269.43886265 242.55232143 417.27886265 242.55232143 569.59886265 C234.63232143 573.55886265 226.71232143 577.51886265 218.55232143 581.59886265 C212.80072304 584.63210783 212.80072304 584.63210783 207.05363369 587.67387486 C194.5481026 594.28917362 181.83426202 600.51071416 169.17374706 606.82238102 C165.24739758 608.78048623 161.32239832 610.74129408 157.39729214 612.70188999 C146.60840434 618.09036768 135.8174939 623.4747898 125.02654934 628.85914707 C115.1195245 633.8025083 105.21295459 638.7467759 95.30801201 643.69430828 C91.42218712 645.6351619 87.53594776 647.57517515 83.64866543 649.51310825 C68.48536779 657.07270097 53.34150122 664.64843136 38.39010525 672.62205982 C30.92694007 676.5888163 23.38817539 680.41287474 15.850173 684.23484898 C13.79323533 685.28193636 11.73991275 686.33615164 9.69001675 687.39695835 C6.67860871 688.95414957 3.65619355 690.48772922 0.63044643 692.0168314 C-0.28001438 692.49371906 -1.1904752 692.97060673 -2.12852573 693.46194553 C-7.3470784 696.06348329 -10.64680031 697.41402758 -16.44767857 695.59886265 C-20.18707642 694.02452844 -23.78935371 692.23076232 -27.40080357 690.3840189 C-28.45563938 689.85424946 -29.5104752 689.32448002 -30.59727573 688.77865696 C-33.96887259 687.08221606 -37.33318817 685.3718464 -40.69767857 683.66136265 C-42.91338145 682.54524849 -45.12952354 681.4300058 -47.34611607 680.31565952 C-63.5190521 672.16362475 -63.5190521 672.16362475 -70.31059361 668.54829502 C-85.34538482 660.55054283 -100.58679626 652.9726951 -115.82625294 645.37534428 C-119.75260242 643.41723907 -123.67760168 641.45643122 -127.60270786 639.4958353 C-137.54983211 634.5277739 -147.498658 629.56312513 -157.44767857 624.59886265 C-168.19664875 619.23544933 -178.94530012 613.87140232 -189.69198799 608.50341702 C-193.57781288 606.5625634 -197.46405224 604.62255015 -201.35133457 602.68461704 C-228.87983404 588.96044636 -228.87983404 588.96044636 -239.86564732 583.13792515 C-248.65569696 578.48884108 -257.55368259 574.04586063 -266.44767857 569.59886265 C-266.44767857 421.75886265 -266.44767857 273.91886265 -266.44767857 121.59886265 C-225.01205357 100.78823765 -183.57642857 79.97761265 -140.88517857 58.53636265 C-127.79273472 51.94917271 -114.70029087 45.36198277 -101.2111063 38.57518101 C-85.24662876 30.57261753 -85.24662876 30.57261753 -77.77740574 26.83422947 C-72.54658974 24.21461868 -67.3208438 21.58521222 -62.09832859 18.94909763 C-56.07740816 15.91002273 -50.05039997 12.88345467 -44.01548332 9.87226275 C-40.92754 8.33100577 -37.84271802 6.78424689 -34.76564777 5.22137916 C-31.47059871 3.55156452 -28.16527375 1.90417049 -24.85635471 0.2620554 C-23.89650197 -0.23097796 -22.93664923 -0.72401133 -21.94771004 -1.23198509 C-13.38095618 -5.42932351 -8.34811449 -4.12711123 0 0 Z M-21.99504185 32.28660679 C-23.1844116 32.90221753 -23.1844116 32.90221753 -24.39780903 33.53026485 C-26.18109519 34.45344306 -27.96264201 35.37998623 -29.74274921 36.30927944 C-34.99936257 39.05017435 -40.27306869 41.75781115 -45.54631138 44.46653843 C-46.4388824 44.9253956 -46.4388824 44.9253956 -47.34948516 45.39352262 C-65.08687891 54.50779605 -82.94006496 63.39242599 -100.7821312 72.29942751 C-104.58349318 74.19731811 -108.38438779 76.09614372 -112.18529439 77.99494612 C-124.89637642 84.34484852 -137.60943756 90.69078424 -150.32267857 97.03636265 C-163.21313466 103.47050379 -176.10323269 109.90535834 -188.99142754 116.34402806 C-194.54240075 119.11703052 -200.09434027 121.88808566 -205.64704394 124.65762126 C-209.06308633 126.3619315 -212.47831243 128.06787229 -215.8933115 129.77427197 C-217.47933531 130.5663439 -219.06570627 131.35772112 -220.65244007 132.14836979 C-222.80717927 133.22216109 -224.96069404 134.29836852 -227.11390781 135.37521458 C-228.06531377 135.84822133 -228.06531377 135.84822133 -229.03594005 136.33078378 C-231.93588082 137.67778733 -231.93588082 137.67778733 -234.44767857 139.59886265 C-234.5457319 141.77242865 -234.57138994 143.94925597 -234.57072639 146.12503242 C-234.57188024 146.81841948 -234.57303408 147.51180654 -234.57422289 148.22620532 C-234.57689624 150.57892782 -234.57236155 152.9315836 -234.56793308 155.28430271 C-234.56836864 156.97633408 -234.56924326 158.66836538 -234.57052225 160.36039633 C-234.57277029 165.03279077 -234.56874173 169.70516251 -234.56374419 174.37755406 C-234.55944427 179.40757666 -234.56088578 184.43759788 -234.56164646 189.4676218 C-234.56217199 198.190058 -234.55902219 206.91248675 -234.55340862 215.63492107 C-234.54529751 228.24625235 -234.5426788 240.85758001 -234.54142063 253.46891361 C-234.5392295 273.92767796 -234.53256776 294.38643834 -234.52311802 314.84520054 C-234.51394548 334.72443211 -234.50686388 354.6036626 -234.50261021 374.48289585 C-234.50234748 375.70730131 -234.50208476 376.93170678 -234.50181407 378.19321544 C-234.50050908 384.33541401 -234.49924536 390.47761259 -234.49800217 396.61981118 C-234.48762765 447.61283108 -234.47000767 498.60584667 -234.44767857 549.59886265 C-221.86304192 556.27955227 -209.20615589 562.78877534 -196.4545145 569.1442728 C-194.64347057 570.04883171 -192.83251968 570.9535769 -191.02165318 571.85849094 C-187.16529444 573.78510694 -183.30832163 575.71048569 -179.45084476 577.63486195 C-173.33637746 580.68525273 -167.22349556 583.73881147 -161.11082554 586.79280186 C-148.14097074 593.27221448 -135.16941564 599.74821936 -122.19767857 606.22386265 C-108.17306172 613.22512444 -94.14875375 620.22700108 -80.12639928 627.23279321 C-74.06418659 630.26142667 -68.00100793 633.28811449 -61.93705034 636.31325269 C-58.15319064 638.20142391 -54.37018126 640.09129397 -50.58738804 641.98160076 C-48.84924311 642.84974614 -47.11075625 643.71720736 -45.37188053 644.58388805 C-42.97527207 645.77851519 -40.57997341 646.97573258 -38.18492222 648.17347813 C-37.43989303 648.54415983 -36.69486384 648.91484154 -35.92725801 649.29675603 C-32.29686176 651.11524952 -28.71592942 652.98731193 -25.18175602 654.9870882 C-24.50373566 655.3664749 -23.8257153 655.74586159 -23.12714887 656.13674486 C-21.86539596 656.84840309 -20.61118143 657.57368332 -19.36688495 658.31544077 C-16.6144455 659.86439703 -14.70800569 660.60371108 -11.5298233 660.54451942 C-7.59909385 659.33850178 -4.07374987 657.68319292 -0.41308689 655.82544041 C0.37901017 655.43145351 1.17110723 655.03746661 1.98720723 654.63154072 C4.63671255 653.31124764 7.28034679 651.97960955 9.92414761 650.64793491 C11.82487417 649.69782608 13.72595027 648.74841621 15.6273489 647.79965305 C20.79290924 645.21958514 25.95343927 642.62959988 31.11308742 640.03773332 C36.52801126 637.31961138 41.94732237 634.61026438 47.36611843 631.89987278 C56.48057073 627.33942035 65.59204193 622.77305926 74.70149136 618.20262241 C86.34313369 612.36174619 97.98927305 606.52989914 109.6370182 600.7012043 C119.69461438 595.66822903 129.75043312 590.63170611 139.8058064 585.59429145 C141.95225396 584.51905181 144.09875953 583.44392796 146.2453239 582.36892152 C152.38414884 579.29456316 158.52200524 576.21828785 164.65835285 573.13898754 C166.5061053 572.21209271 168.35416686 571.28581376 170.20258617 570.36024952 C181.76558959 564.56949222 193.25286195 558.65263256 204.67231828 552.58335823 C206.61950831 551.5636791 208.58635204 550.58184734 210.55232143 549.59886265 C210.55232143 414.29886265 210.55232143 278.99886265 210.55232143 139.59886265 C182.61013344 125.20790268 182.61013344 125.20790268 154.56819057 111.01829624 C152.73696375 110.09952689 150.9058048 109.18062227 149.07470608 108.26159763 C143.24695114 105.33752596 137.4173011 102.41724503 131.58747768 99.49730015 C129.55214761 98.47760278 127.51682809 97.45788437 125.48151875 96.43814564 C115.95614354 91.66602636 106.42985657 86.89573345 96.90239626 82.12777841 C85.9664985 76.65489477 75.03398757 71.17531631 64.10412413 65.6903919 C55.58732764 61.41695351 47.0674998 57.14960072 38.54534334 52.88686144 C33.47888629 50.35245877 28.4137826 47.81543558 23.35189915 45.27190876 C18.62311601 42.89593716 13.89063901 40.52749728 9.15515232 38.16491604 C7.41867342 37.29692532 5.68356757 36.4261816 3.94993114 35.55252743 C1.58993492 34.36374011 -0.77474588 33.18484781 -3.14090061 32.00837803 C-3.82909144 31.65879799 -4.51728227 31.30921796 -5.22632736 30.94904459 C-12.02419684 27.5960917 -15.63758557 28.92139701 -21.99504185 32.28660679 Z " fill="#031544" transform="translate(362.447678565979,4.401137351989746)"/>
<path d="M0 0 C0 64.35 0 128.7 0 195 C-50.8125 220.375 -50.8125 220.375 -66.74145508 228.32568359 C-71.53397042 230.72026703 -71.53397042 230.72026703 -76.32621765 233.11538696 C-78.42834408 234.16569227 -80.53086219 235.21521389 -82.63371277 236.2640686 C-99.83913959 244.84683683 -116.89030698 253.66789342 -133.79040051 262.83663082 C-140.00411455 266.20197039 -146.254717 269.49443258 -152.52127075 272.76022625 C-156.70110479 274.9416004 -160.8621166 277.14935215 -164.99414062 279.42016602 C-169.05541564 281.65061705 -173.1495822 283.80461715 -177.2756958 285.91254616 C-178.82010908 286.71730716 -180.35151776 287.54762761 -181.86737061 288.40497398 C-193.1070111 294.73224643 -193.1070111 294.73224643 -199.22982788 293.58058357 C-204.30814783 291.86358281 -208.847419 289.20427261 -213.44128418 286.47769737 C-217.85292881 283.92990538 -222.45546552 281.77326701 -227.03515625 279.54711914 C-228.99541782 278.57198595 -230.95429421 277.59406389 -232.91186523 276.61354065 C-233.91369843 276.1121866 -234.91553162 275.61083256 -235.94772339 275.09428596 C-236.97559967 274.57977316 -238.00347595 274.06526035 -239.0625 273.53515625 C-241.23179419 272.45084725 -243.40114766 271.36665684 -245.57055664 270.28257751 C-250.08577338 268.02570027 -254.6002761 265.767403 -259.11425781 263.50805664 C-264.84439468 260.64014073 -270.57631999 257.77582044 -276.30879211 254.91257572 C-280.77958774 252.67900136 -285.24941252 250.44348963 -289.71896362 248.20742607 C-291.82977106 247.15169337 -293.94086559 246.09653442 -296.05227661 245.04200935 C-306.90020335 239.62278273 -317.70546006 234.14141942 -328.42118645 228.4648447 C-335.24945858 224.8519385 -342.1425932 221.38769058 -349.0703125 217.96875 C-350.29647881 217.36043676 -351.52245692 216.75174405 -352.7482605 216.1427002 C-357.84375654 213.61140094 -362.94129856 211.08427585 -368.04248047 208.56445312 C-371.20512323 207.00189021 -374.36485285 205.4335707 -377.5227623 203.86146545 C-379.29166355 202.9829779 -381.06379344 202.11100115 -382.83596802 201.23913574 C-383.89572845 200.71098267 -384.95548889 200.18282959 -386.04736328 199.63867188 C-386.98266876 199.17585815 -387.91797424 198.71304443 -388.88162231 198.23620605 C-391 197 -391 197 -392 195 C-369.90336302 183.93996102 -347.80555673 172.88226141 -325.70638561 161.82728672 C-315.44360168 156.69332511 -305.18119056 151.55862097 -294.91967773 146.42211914 C-285.96766236 141.94110165 -277.01492628 137.46152783 -268.06134969 132.9836306 C-263.32790479 130.61626073 -258.59480492 128.24820724 -253.86256981 125.87841988 C-249.39262693 123.64001069 -244.92171022 121.40355813 -240.45009422 119.16849327 C-238.82420197 118.35541153 -237.19864249 117.54166389 -235.57347488 116.7271347 C-226.42241134 112.14120256 -217.22847806 107.66785714 -207.9676435 103.30772978 C-200.93884931 99.9905158 -193.98586956 96.53493551 -187.04798198 93.03238106 C-183.40217051 91.19453935 -179.74915931 89.37108448 -176.0973053 87.54528809 C-174.51266868 86.75233185 -172.92806976 85.95930026 -171.34350586 85.16619873 C-151.4853448 75.22768893 -131.62595857 65.29162942 -111.76584721 55.35701752 C-100.77996291 49.86148606 -89.79446212 44.36519041 -78.80981445 38.8671875 C-69.18909706 34.05185778 -59.56768602 29.23791742 -49.94542688 24.42566919 C-44.86068043 21.88264322 -39.7762907 19.33890973 -34.69273567 16.79350281 C-29.9287744 14.40814647 -25.16389366 12.02463744 -20.39827919 9.64258575 C-18.64548447 8.76605015 -16.8930358 7.88882219 -15.14094925 7.01087189 C-12.7608581 5.81836117 -10.37956681 4.62828294 -7.99794006 3.43884277 C-7.29583233 3.08633249 -6.5937246 2.7338222 -5.87034088 2.37062979 C-1.11412265 0 -1.11412265 0 0 0 Z " fill="#041645" transform="translate(548,343)"/>
<path d="M0 0 C3.47491992 2.20181889 7.16074896 3.90466519 10.87121582 5.66794395 C12.30606412 6.37940056 13.73916096 7.0943998 15.17053223 7.81282616 C15.89154114 8.17376806 16.61255005 8.53470997 17.35540771 8.90658951 C18.46538116 9.46243823 18.46538116 9.46243823 19.59777832 10.02951622 C21.18414634 10.8223615 22.77057358 11.6150883 24.35705566 12.40770531 C27.64823198 14.05256524 30.93869928 15.69883218 34.2286377 17.34616661 C38.38488759 19.42713858 42.54292336 21.50451292 46.70150757 23.58081532 C49.96790505 25.21218232 53.23332298 26.84550259 56.49847412 28.47936249 C58.0287364 29.24482037 59.55928068 30.00971485 61.09014893 30.77396011 C69.29840876 34.87310992 77.4627549 39.04127373 85.57165527 43.33395958 C95.31336305 48.48885762 105.15206824 53.43722205 115.01574707 58.35373497 C116.82714034 59.25849546 118.63844325 60.16343689 120.44966125 61.0685482 C125.14537852 63.41452609 129.84229295 65.75809665 134.53948975 68.10111046 C139.36109914 70.50673835 144.18153257 72.91472034 149.0020752 75.32248497 C158.40784817 80.02005921 167.81489177 84.7150827 177.22277832 89.40842247 C177.22277832 90.06842247 177.22277832 90.72842247 177.22277832 91.40842247 C163.21284617 98.43674519 149.20062917 105.46048983 135.18567276 112.47878742 C128.67839488 115.73758343 122.17187452 118.99787512 115.66711426 122.26169395 C109.99780598 125.10631289 104.32709878 127.94811996 98.65469146 130.7865544 C95.65104273 132.2896828 92.64811505 133.79421322 89.64685822 135.30211258 C86.29673032 136.9844095 82.94415348 138.66172487 79.59094238 140.33786583 C78.59544373 140.83921043 77.59994507 141.34055504 76.57427979 141.8570919 C75.66005249 142.31283089 74.7458252 142.76856987 73.80389404 143.23811913 C73.01115208 143.6354119 72.21841011 144.03270468 71.40164566 144.44203663 C69.34665504 145.35347984 67.41698081 145.94189966 65.22277832 146.40842247 C64.2411441 144.47217149 63.26255378 142.53437708 62.28527832 140.59592247 C61.46736816 138.9775045 61.46736816 138.9775045 60.63293457 137.32639122 C59.22277832 134.40842247 59.22277832 134.40842247 58.22277832 131.40842247 C56.25604917 130.25833937 56.25604917 130.25833937 54.22277832 129.40842247 C53.89277832 129.07842247 53.56277832 128.74842247 53.22277832 128.40842247 C50.72516641 128.33226996 48.25498441 128.31762515 45.75793457 128.34592247 C45.00942734 128.34970909 44.2609201 128.35349571 43.48973083 128.35739708 C40.27478504 128.37381108 37.05996413 128.40191185 33.84509277 128.42893028 C31.50354596 128.44696226 29.16201958 128.45909175 26.82043457 128.47092247 C25.72506126 128.48336998 25.72506126 128.48336998 24.6075592 128.49606895 C19.44839228 128.52122945 19.44839228 128.52122945 17.22277832 127.40842247 C17.67914368 126.01194447 18.1379732 124.61627167 18.59777832 123.22092247 C18.8530127 122.44361778 19.10824707 121.6663131 19.37121582 120.86545372 C20.22277832 118.40842247 20.22277832 118.40842247 21.25402832 116.00217247 C22.3599107 113.04126157 22.86752961 110.21753909 23.34777832 107.09592247 C23.59914551 105.49297325 23.59914551 105.49297325 23.85559082 103.85764122 C23.9767627 103.04939903 24.09793457 102.24115685 24.22277832 101.40842247 C23.56277832 101.40842247 22.90277832 101.40842247 22.22277832 101.40842247 C22.36472596 99.3456514 22.51150048 97.28321216 22.66027832 95.22092247 C22.78209473 93.49809044 22.78209473 93.49809044 22.90637207 91.74045372 C23.17694725 88.89106321 23.65990039 86.20799954 24.22277832 83.40842247 C24.0056048 81.20041719 24.0056048 81.20041719 23.22277832 79.40842247 C22.56277832 79.07842247 21.90277832 78.74842247 21.22277832 78.40842247 C20.60039663 76.42624002 20.05012491 74.42121636 19.53527832 72.40842247 C17.58524641 65.81442568 14.93659029 61.36293974 10.22277832 56.40842247 C9.69941895 55.8335006 9.17605957 55.25857872 8.63684082 54.66623497 C2.6823993 48.82797767 -5.67587192 46.26888474 -13.90222168 45.97092247 C-26.52320899 46.59592344 -36.70614537 52.58730543 -45.08581543 61.77170372 C-49.49339656 68.64264427 -50.22213844 75.52965282 -50.02722168 83.53342247 C-50.0194873 84.81539513 -50.0194873 84.81539513 -50.01159668 86.12326622 C-49.95197862 90.97468544 -49.58106252 95.62427294 -48.77722168 100.40842247 C-49.43722168 100.40842247 -50.09722168 100.40842247 -50.77722168 100.40842247 C-49.78722168 104.86342247 -49.78722168 104.86342247 -48.77722168 109.40842247 C-47.89034668 109.32592247 -47.00347168 109.24342247 -46.08972168 109.15842247 C-41.942764 109.47140041 -40.54277165 110.32680965 -37.77722168 113.40842247 C-36.96472168 117.15842247 -36.96472168 117.15842247 -36.77722168 120.40842247 C-37.43722168 119.08842247 -38.09722168 117.76842247 -38.77722168 116.40842247 C-39.76722168 117.06842247 -40.75722168 117.72842247 -41.77722168 118.40842247 C-44.10110115 118.80230035 -46.43515917 119.14328332 -48.77722168 119.40842247 C-48.6554448 121.32308614 -48.6554448 121.32308614 -47.77722168 123.40842247 C-46.14090276 124.45734485 -44.47236305 125.4574895 -42.77722168 126.40842247 C-40.48708515 129.84362727 -40.59879195 131.39375347 -40.77722168 135.40842247 C-61.96085 140.91616583 -61.96085 140.91616583 -71.77722168 140.40842247 C-72.02601074 141.2360006 -72.2747998 142.06357872 -72.53112793 142.91623497 C-74.20500336 147.60728397 -76.47582635 151.89757209 -78.76745605 156.31076622 C-80.50818286 159.71354292 -82.06241627 163.06214902 -83.34362793 166.66623497 C-84.45484271 169.68133108 -85.40349728 172.15035518 -87.77722168 174.40842247 C-90.55456543 175.38498497 -90.55456543 175.38498497 -93.71472168 176.03342247 C-97.40677219 176.81117784 -100.4445938 177.65685734 -103.77722168 179.40842247 C-105.04884824 176.55460858 -106.31937606 173.70030676 -107.58972168 170.84592247 C-107.94614746 170.04605919 -108.30257324 169.24619591 -108.6697998 168.42209435 C-109.37847886 166.82919187 -110.08397536 165.2348696 -110.78625488 163.63913536 C-111.64532028 161.70533873 -112.5365514 159.78589246 -113.43347168 157.86935997 C-115.01589707 153.79369459 -115.8131315 149.90472444 -116.46472168 145.59592247 C-116.59064697 144.7735006 -116.71657227 143.95107872 -116.84631348 143.10373497 C-118.59477914 130.69756017 -118.49898969 118.65637853 -115.77722168 106.40842247 C-115.77722168 105.74842247 -115.77722168 105.08842247 -115.77722168 104.40842247 C-116.76722168 105.06842247 -117.75722168 105.72842247 -118.77722168 106.40842247 C-119.10722168 105.41842247 -119.43722168 104.42842247 -119.77722168 103.40842247 C-121.42722168 103.40842247 -123.07722168 103.40842247 -124.77722168 103.40842247 C-124.68440918 104.00010216 -124.59159668 104.59178185 -124.49597168 105.20139122 C-124.25950171 107.78989282 -124.22282881 109.86247984 -124.77722168 112.40842247 C-128.5030303 116.38447197 -133.42203383 118.00678338 -138.77722168 118.40842247 C-138.28222168 119.73873497 -138.28222168 119.73873497 -137.77722168 121.09592247 C-135.04941248 130.66837922 -136.86086715 141.9466927 -137.27722168 151.78342247 C-137.45021723 156.3248669 -137.61516517 160.86657563 -137.77722168 165.40842247 C-137.80880371 166.26017052 -137.84038574 167.11191856 -137.8729248 167.98947716 C-137.942371 170.04526273 -137.98617281 172.10187389 -138.02722168 174.15842247 C-138.05300293 175.22576622 -138.07878418 176.29310997 -138.10534668 177.39279747 C-137.7704932 180.47026041 -136.82580371 182.70849627 -135.52575684 185.49387169 C-133.85706828 189.76192638 -133.59616693 194.47723721 -133.04870605 199.00021935 C-132.51866701 202.73558326 -132.19207523 204.88513195 -129.80456543 207.89670372 C-125.32765899 211.234975 -120.80020545 210.75727328 -115.35534668 211.02951622 C-111.77722168 211.40842247 -111.77722168 211.40842247 -108.89440918 212.42404747 C-104.75987774 213.72968898 -100.9625192 213.75012445 -96.65222168 213.72092247 C-95.81199463 213.71673302 -94.97176758 213.71254356 -94.1060791 213.70822716 C-80.69910475 213.46631227 -70.37751069 209.35863923 -59.77722168 201.40842247 C-58.45722168 202.06842247 -57.13722168 202.72842247 -55.77722168 203.40842247 C-55.77722168 204.72842247 -55.77722168 206.04842247 -55.77722168 207.40842247 C-76.08012839 217.5832073 -96.38530672 227.75344539 -116.69322014 237.91823387 C-126.12188572 242.63772909 -135.54979428 247.35872506 -144.97595215 252.08322716 C-153.18910985 256.19975447 -161.40365672 260.31349381 -169.61990368 264.42385197 C-173.97270265 266.60155828 -178.32477967 268.78068091 -182.6751976 270.96314049 C-186.76587482 273.01524185 -190.85839208 275.0636241 -194.95238113 277.10910988 C-196.45837299 277.86238202 -197.96367439 278.61703633 -199.46824646 279.37314034 C-201.51513031 280.40152347 -203.56439092 281.42500377 -205.61434937 282.44724083 C-206.76290342 283.02243965 -207.91145748 283.59763847 -209.09481621 284.19026756 C-211.77722168 285.40842247 -211.77722168 285.40842247 -213.77722168 285.40842247 C-213.77722168 221.38842247 -213.77722168 157.36842247 -213.77722168 91.40842247 C-188.69722168 78.86842247 -163.61722168 66.32842247 -137.77722168 53.40842247 C-123.95312425 46.13836127 -123.95312425 46.13836127 -110.15124512 38.82771873 C-99.57341575 33.20171044 -88.95481704 27.65807841 -78.30371094 22.17207623 C-72.42954416 19.1436273 -66.57284106 16.08831647 -60.74597168 12.96970177 C-55.05064422 9.92285206 -49.32167963 6.95091311 -43.56262207 4.02642441 C-41.39325484 2.90904215 -39.2369091 1.76596313 -37.09533691 0.59619141 C-22.37303912 -7.41778827 -14.33083461 -9.38136269 0 0 Z " fill="#AC1421" transform="translate(366.7772216796875,71.59157752990723)"/>
<path d="M0 0 C0 9.9 0 19.8 0 30 C-12.23292225 36.50328439 -24.52536258 42.81764111 -36.98608398 48.87207031 C-39.62283212 50.15433995 -42.25579782 51.44417241 -44.88867188 52.734375 C-46.57269851 53.55513526 -48.25693486 54.37546541 -49.94140625 55.1953125 C-51.11613243 55.77165939 -51.11613243 55.77165939 -52.31459045 56.35964966 C-57.77047682 59 -57.77047682 59 -60 59 C-60 64.94 -60 70.88 -60 77 C-54.55546774 74.34944272 -49.11113799 71.6984701 -43.66699219 69.04711914 C-41.81646134 68.14596434 -39.96587604 67.24492134 -38.11523438 66.34399414 C-35.44907399 65.04603273 -32.78311224 63.74766408 -30.1171875 62.44921875 C-29.29507782 62.0491008 -28.47296814 61.64898285 -27.62594604 61.23674011 C-26.45541183 60.66648857 -26.45541183 60.66648857 -25.26123047 60.0847168 C-24.52902283 59.72864349 -23.79681519 59.37257019 -23.04241943 59.00570679 C-21.20239952 58.09966345 -19.37771182 57.16264176 -17.55517578 56.22192383 C-15 55 -15 55 -13 55 C-13 64.57 -13 74.14 -13 84 C-28.18 91.59 -43.36 99.18 -59 107 C-59.33 119.87 -59.66 132.74 -60 146 C-64.24875 148.145 -68.4975 150.29 -72.875 152.5 C-74.2141748 153.17869141 -75.55334961 153.85738281 -76.93310547 154.55664062 C-77.98385254 155.08451172 -79.03459961 155.61238281 -80.1171875 156.15625 C-81.19597168 156.70087891 -82.27475586 157.24550781 -83.38623047 157.80664062 C-86 159 -86 159 -88 159 C-88.00496522 158.16013015 -88.00496522 158.16013015 -88.01003075 157.30329323 C-88.09118298 143.69147856 -88.18337603 130.07977746 -88.28752708 116.46811867 C-88.3375576 109.88566842 -88.38388691 103.30323476 -88.421875 96.72070312 C-88.45864259 90.37291559 -88.50497899 84.02526456 -88.55806351 77.67759323 C-88.57665292 75.25102499 -88.59174389 72.82442743 -88.60334396 70.3978157 C-88.62012877 67.00937041 -88.64914473 63.62124092 -88.68115234 60.23291016 C-88.68331253 59.22087021 -88.68547272 58.20883026 -88.68769836 57.16612244 C-88.69886185 56.24623032 -88.71002533 55.3263382 -88.7215271 54.37857056 C-88.72705786 53.57661066 -88.73258862 52.77465076 -88.73828697 51.94838905 C-88.83107469 49.76447353 -88.83107469 49.76447353 -91 48 C-91.33 57.24 -91.66 66.48 -92 76 C-102.29186989 81.55578817 -112.6556075 86.81122652 -123.22509766 91.81689453 C-132.89005318 96.39995929 -142.45200456 101.17894206 -152 106 C-152 111.61 -152 117.22 -152 123 C-150.06966919 122.04577148 -150.06966919 122.04577148 -148.1003418 121.07226562 C-143.33422721 118.71814984 -138.56431888 116.37181296 -133.79321289 114.02783203 C-131.72706106 113.01140422 -129.6619503 111.99285737 -127.59790039 110.97216797 C-124.63437381 109.50713369 -121.66721166 108.04971032 -118.69921875 106.59375 C-117.7741301 106.13440063 -116.84904144 105.67505127 -115.8959198 105.20178223 C-115.03525406 104.78134644 -114.17458832 104.36091064 -113.2878418 103.92773438 C-112.53061325 103.55467163 -111.7733847 103.18160889 -110.99320984 102.79724121 C-109 102 -109 102 -106 102 C-106 111.24 -106 120.48 -106 130 C-121.18 137.59 -136.36 145.18 -152 153 C-152.33 165.87 -152.66 178.74 -153 192 C-157.269375 194.145 -161.53875 196.29 -165.9375 198.5 C-167.28577881 199.17869141 -168.63405762 199.85738281 -170.02319336 200.55664062 C-171.07643799 201.08451172 -172.12968262 201.61238281 -173.21484375 202.15625 C-174.29886475 202.70087891 -175.38288574 203.24550781 -176.49975586 203.80664062 C-179 205 -179 205 -180 205 C-180.00146656 204.44800588 -180.00293312 203.89601175 -180.00444412 203.32729053 C-180.04151254 189.88960969 -180.10077984 176.45218421 -180.18390274 163.01470661 C-180.22342997 156.51638585 -180.25559287 150.01820167 -180.27099609 143.51977539 C-180.28612787 137.24968383 -180.32051213 130.97996763 -180.36830902 124.71004295 C-180.38315865 122.31666512 -180.39104306 119.92323371 -180.39188385 117.52980995 C-180.39424439 114.18002822 -180.42125213 110.83129152 -180.45410156 107.48168945 C-180.4490712 106.48978607 -180.44404083 105.49788269 -180.43885803 104.47592163 C-180.50653096 100.02236718 -180.57100472 97.66541123 -183.03411865 93.84489441 C-183.6828595 93.23607925 -184.33160034 92.6272641 -185 92 C-167.20099412 82.43169784 -149.09495335 73.46519647 -131.02300715 64.42787504 C-128.32090141 63.07646382 -125.6190822 61.72448146 -122.91736031 60.37230301 C-113.48196003 55.65000586 -104.04555256 50.92972869 -94.6081543 46.21142578 C-85.81898844 41.81714524 -77.03208218 37.41836973 -68.24618047 33.01756704 C-60.6778238 29.2268664 -53.10794083 25.43922632 -45.53684527 21.65399897 C-41.02458094 19.39799438 -36.51294894 17.1407469 -32.00285149 14.88041306 C-27.77981584 12.76407862 -23.55490272 10.65154203 -19.32847786 8.54198456 C-17.77570808 7.76612497 -16.22362648 6.98888639 -14.67227173 6.21020126 C-12.56290992 5.15169371 -10.45117114 4.09809091 -8.33872986 3.04574585 C-7.40973551 2.57739101 -7.40973551 2.57739101 -6.46197361 2.09957445 C-2.22827552 0 -2.22827552 0 0 0 Z " fill="#051645" transform="translate(496,222)"/>
<path d="M0 0 C2.33203125 1.0234375 2.33203125 1.0234375 4 2 C2.35 3.98 0.7 5.96 -1 8 C-0.401875 8.061875 0.19625 8.12375 0.8125 8.1875 C3.87143458 9.3236757 4.55041099 11.17330142 6 14 C-0.75 13.125 -0.75 13.125 -3 12 C-3.625 9.4375 -3.625 9.4375 -4 7 C-5.65 7.33 -7.3 7.66 -9 8 C-8.505 9.98 -8.505 9.98 -8 12 C-9.134375 12.391875 -10.26875 12.78375 -11.4375 13.1875 C-12.613125 13.785625 -13.78875 14.38375 -15 15 C-15.77723098 17.55038554 -15.77723098 17.55038554 -16 20 C-14.98679687 19.74863281 -14.98679687 19.74863281 -13.953125 19.4921875 C-13.06109375 19.28851563 -12.1690625 19.08484375 -11.25 18.875 C-10.36828125 18.66617187 -9.4865625 18.45734375 -8.578125 18.2421875 C-5.67124507 17.96911696 -4.43338652 18.46491972 -2 20 C-3.485 20.495 -3.485 20.495 -5 21 C-4.505 21.5775 -4.01 22.155 -3.5 22.75 C-2 25 -2 25 -2 29 C-2.66 29 -3.32 29 -4 29 C-2.95125002 31.62187494 -2.35068687 32.79371361 0.125 34.25 C1.053125 34.62125 1.053125 34.62125 2 35 C2 35.66 2 36.32 2 37 C-3.445 36.505 -3.445 36.505 -9 36 C-9.66 36.99 -10.32 37.98 -11 39 C-9.8553125 38.6596875 -9.8553125 38.6596875 -8.6875 38.3125 C-7.3571875 38.1578125 -7.3571875 38.1578125 -6 38 C-4.4375 39.25 -4.4375 39.25 -3 41 C-2.278125 41.37125 -1.55625 41.7425 -0.8125 42.125 C1.39541778 44.40905287 1.36254069 45.32684669 1.5 48.4375 C1.35875989 51.77293947 1.15535379 52.78768315 -0.875 55.5625 C-3 57 -3 57 -5 57 C-4.96044102 58.92309422 -4.96044102 58.92309422 -4 61 C-1.01647106 62.78379415 -1.01647106 62.78379415 2 64 C1.67 66.31 1.34 68.62 1 71 C-1.31 70.34 -3.62 69.68 -6 69 C-4.20546782 71.95570006 -2.43902111 73.42420142 0.5625 75 C3.98191708 76.98947903 4.65419707 77.52334243 6 81 C7.03959519 82.87359395 7.03959519 82.87359395 9 84 C11.71815286 84.2529766 14.25911949 84.1347974 17 84 C16.67 84.66 16.34 85.32 16 86 C12.10986797 86.99160228 9.76928553 87.30450886 6 85.8125 C5.01 85.214375 4.02 84.61625 3 84 C1.7502218 83.31209687 0.50021809 82.62460333 -0.75 81.9375 C-4 80 -4 80 -6 78 C-4.68 77.67 -3.36 77.34 -2 77 C-2.78375 76.2575 -3.5675 75.515 -4.375 74.75 C-6.56504531 72.45566682 -7.82731386 70.87841142 -9 68 C-10.65 68 -12.3 68 -14 68 C-14 67.34 -14 66.68 -14 66 C-15.98 65.34 -17.96 64.68 -20 64 C-20.72960862 65.5526795 -21.43292641 67.11773043 -22.125 68.6875 C-22.51945312 69.55761719 -22.91390625 70.42773438 -23.3203125 71.32421875 C-24.16939234 74.66686066 -23.68730781 76.03458178 -22 79 C-20.515 79.99 -20.515 79.99 -19 81 C-19 81.99 -19 82.98 -19 84 C-19.66 84 -20.32 84 -21 84 C-21.33 83.34 -21.66 82.68 -22 82 C-23.32 82 -24.64 82 -26 82 C-28.10546875 80.5390625 -28.10546875 80.5390625 -30.1875 78.625 C-30.88230469 77.99851562 -31.57710938 77.37203125 -32.29296875 76.7265625 C-34 75 -34 75 -35 73 C-36.485 73.495 -36.485 73.495 -38 74 C-38 73.34 -38 72.68 -38 72 C-41.46078967 72.41529476 -44.59650577 72.85088257 -47.875 74.0625 C-51.97335761 75.29200728 -55.75504732 75.16979811 -60 75 C-57.08235 76.9451 -55.37462715 77.45276317 -52 78 C-52 77.34 -52 76.68 -52 76 C-50.35 76.33 -48.7 76.66 -47 77 C-46.71428571 84.42857143 -46.71428571 84.42857143 -49 88 C-49.66 88 -50.32 88 -51 88 C-51.66 89.32 -52.32 90.64 -53 92 C-57 92 -57 92 -58.3125 90.75 C-58.869375 90.1725 -59.42625 89.595 -60 89 C-61.75220072 87.98053776 -63.50562721 86.9624723 -65.28125 85.984375 C-67.32179977 84.81569649 -69.16508533 83.46793174 -71 82 C-71 82.66 -71 83.32 -71 84 C-66.23532851 87.90778393 -60.76946378 91.80210904 -55 94 C-52.87183587 93.84311576 -52.87183587 93.84311576 -51 93 C-49.66930679 92.65627851 -48.33621694 92.32157918 -47 92 C-46.97303635 93.79158489 -46.95362083 95.58328473 -46.9375 97.375 C-46.92589844 98.37273437 -46.91429687 99.37046875 -46.90234375 100.3984375 C-47 103 -47 103 -48 105 C-48.83065543 111.72776889 -48.83065543 111.72776889 -46.8125 117.96484375 C-46.338125 118.51269531 -45.86375 119.06054688 -45.375 119.625 C-43.56765351 121.72515681 -42.96298525 122.43893432 -43.1484375 125.25 C-43.54750903 126.82555514 -43.98098963 128.3928147 -44.44921875 129.94921875 C-45.1568658 132.58407478 -44.5809453 134.35347139 -44 137 C-43.93940826 142.20223337 -44.16622787 145.8732809 -47.3125 150.125 C-50 152 -50 152 -54 152 C-56.21875 149.734375 -56.21875 149.734375 -58.5 146.75 C-61.67896744 142.61977122 -61.67896744 142.61977122 -65.26171875 138.8515625 C-67 137 -67 137 -67.3125 133.625 C-68.26149713 128.62119695 -70.92869252 126.80196219 -75 124 C-75.99 123.505 -75.99 123.505 -77 123 C-77.625 120.4375 -77.625 120.4375 -78 118 C-83.24513766 117.29571987 -83.24513766 117.29571987 -87.84375 119.37109375 C-88.69453125 120.20833984 -88.69453125 120.20833984 -89.5625 121.0625 C-92.60363284 123.99304619 -92.60363284 123.99304619 -96.5625 124.0625 C-99.95298169 123.01453293 -102.90784621 121.73462286 -106 120 C-106 119.34 -106 118.68 -106 118 C-106.66 118 -107.32 118 -108 118 C-111.19850562 108.80429636 -110.22671076 100.34423266 -108 91 C-106.515 90.505 -106.515 90.505 -105 90 C-104.21625 89.195625 -103.4325 88.39125 -102.625 87.5625 C-100.07572514 85.07392216 -98.34786879 84.05218733 -95 83 C-94.67 84.32 -94.34 85.64 -94 87 C-89.545 86.505 -89.545 86.505 -85 86 C-85 85.01 -85 84.02 -85 83 C-81.37 82.01 -77.74 81.02 -74 80 C-74.495 76.535 -74.495 76.535 -75 73 C-75.66 73 -76.32 73 -77 73 C-77 73.66 -77 74.32 -77 75 C-80.465 75.495 -80.465 75.495 -84 76 C-84.495 75.01 -84.495 75.01 -85 74 C-85.66 74 -86.32 74 -87 74 C-86.67 75.32 -86.34 76.64 -86 78 C-86.66 77.731875 -87.32 77.46375 -88 77.1875 C-91.64939067 75.74294953 -95.32245433 74.37128822 -99 73 C-99 73.66 -99 74.32 -99 75 C-96.69 75.66 -94.38 76.32 -92 77 C-92.33 77.66 -92.66 78.32 -93 79 C-95.64 78.34 -98.28 77.68 -101 77 C-101.495 77.99 -101.495 77.99 -102 79 C-102.99 79 -103.98 79 -105 79 C-105 81.97 -105 84.94 -105 88 C-106.98 88.99 -108.96 89.98 -111 91 C-113.35953094 88.64046906 -113.49141413 87.22104383 -114 84 C-111.525 83.01 -111.525 83.01 -109 82 C-109.33 81.01 -109.66 80.02 -110 79 C-110.66 78.67 -111.32 78.34 -112 78 C-110.33333333 73 -108.66666667 68 -107 63 C-106.505 64.485 -106.505 64.485 -106 66 C-102.31474409 64.26904538 -102.31474409 64.26904538 -99 62 C-97.94824448 58.87311572 -97.94824448 58.87311572 -98 56 C-97.34 56 -96.68 56 -96 56 C-96 55.34 -96 54.68 -96 54 C-96.99 54.66 -97.98 55.32 -99 56 C-101.1875 55.625 -101.1875 55.625 -103 55 C-102.67 54.01 -102.34 53.02 -102 52 C-102.66 52 -103.32 52 -104 52 C-104.495 54.475 -104.495 54.475 -105 57 C-104.34 57 -103.68 57 -103 57 C-103 58.98 -103 60.96 -103 63 C-106 63 -106 63 -109 62 C-109 62.66 -109 63.32 -109 64 C-110.32 63.34 -111.64 62.68 -113 62 C-112.71125 61.505 -112.4225 61.01 -112.125 60.5 C-111.10434057 58.23186794 -110.66071354 56.41564246 -110.1875 54 C-109.47478959 51.14383963 -108.9506589 49.93792572 -107.0625 47.5625 C-102.53669303 45.25341481 -98.02130386 45.17587754 -93 45 C-93.33 45.66 -93.66 46.32 -94 47 C-94.99 47 -95.98 47 -97 47 C-97 47.66 -97 48.32 -97 49 C-95.02 48.505 -95.02 48.505 -93 48 C-92.979375 47.2575 -92.95875 46.515 -92.9375 45.75 C-91.70793189 42.14326687 -90.05953919 41.49473949 -86.7890625 39.796875 C-85 39 -85 39 -82 38 C-82 37.34 -82 36.68 -82 36 C-81.01 35.67 -80.02 35.34 -79 35 C-79.33 34.01 -79.66 33.02 -80 32 C-79.195625 31.71125 -78.39125 31.4225 -77.5625 31.125 C-74.8673532 30.26737432 -74.8673532 30.26737432 -74 28 C-73.34 28 -72.68 28 -72 28 C-72 27.01 -72 26.02 -72 25 C-70 23.3125 -70 23.3125 -68 22 C-68.495 21.01 -68.495 21.01 -69 20 C-67.58622218 19.63447197 -66.16879424 19.28304505 -64.75 18.9375 C-63.96109375 18.74027344 -63.1721875 18.54304688 -62.359375 18.33984375 C-60 18 -60 18 -57.99609375 18.5859375 C-55.12626928 19.18124355 -53.81963713 18.12072654 -51.3125 16.6875 C-47.17373015 14.46505406 -43.54415658 13.24432094 -38.91015625 12.5546875 C-36.55742722 11.87148193 -35.69620676 10.73127047 -34 9 C-31.984375 8.12109375 -31.984375 8.12109375 -29.75 7.4375 C-28.95335937 7.18742187 -28.15671875 6.93734375 -27.3359375 6.6796875 C-25.35911567 6.10449185 -23.36822489 5.5779892 -21.375 5.0625 C-17.87626586 4.12838379 -17.87626586 4.12838379 -14.75 1.875 C-10.19986243 -0.89016297 -5.15836783 -0.67935625 0 0 Z " fill="#FBFBFC" transform="translate(464,416)"/>
<path d="M0 0 C2.62828678 2.32326932 3.85824004 4.52279312 5.21386719 7.7421875 C5.83235283 9.19581192 5.83235283 9.19581192 6.46333313 10.67880249 C6.90340195 11.73354767 7.34347076 12.78829285 7.796875 13.875 C8.26316818 14.97590973 8.72946136 16.07681946 9.20988464 17.21109009 C10.73017116 20.80451747 12.24025548 24.4021323 13.75 28 C14.78780469 30.46041771 15.82612497 32.92060826 16.86547852 35.38037109 C17.38644597 36.61348763 17.90739629 37.84661141 18.42832947 39.07974243 C18.81454122 39.99394896 18.81454122 39.99394896 19.20855522 40.9266243 C19.98887214 42.77483705 20.76812252 44.62349636 21.5471344 46.47225952 C24.61224354 53.74037613 27.71017329 60.99280035 30.85546875 68.2265625 C31.21240814 69.04936707 31.56934753 69.87217163 31.93710327 70.71990967 C33.91274135 75.27332101 33.91274135 75.27332101 35.90197754 79.82080078 C36.78338761 81.82838643 37.65621491 83.8394995 38.52734375 85.8515625 C39.00937256 86.95322754 39.49140137 88.05489258 39.98803711 89.18994141 C41 92 41 92 41 96 C37.05408721 98.02228979 33.10308591 100.03414462 29.14697266 102.03637695 C27.80111272 102.71938218 26.45670094 103.40524867 25.11376953 104.09399414 C23.18633032 105.08189564 21.25396523 106.0594849 19.3203125 107.03515625 C18.15773926 107.6269165 16.99516602 108.21867676 15.79736328 108.82836914 C14.8742334 109.21500732 13.95110352 109.60164551 13 110 C9.8601549 108.43007745 9.57856654 105.77552998 8.375 102.5625 C7.70597656 100.80099609 7.70597656 100.80099609 7.0234375 99.00390625 C6 96 6 96 6 94 C-5.37805432 99.63743141 -16.74525787 105.27554286 -27.89428711 111.35717773 C-32.79004693 114 -32.79004693 114 -35 114 C-35.0825 115.216875 -35.165 116.43375 -35.25 117.6875 C-35.4896458 119.45976425 -35.74092539 121.23047152 -36 123 C-36.14308594 124.55460937 -36.14308594 124.55460937 -36.2890625 126.140625 C-37.11878309 130.8091862 -38.03298208 134.47098607 -41.92089844 137.49316406 C-46.61647483 140.40662404 -51.57474684 142.72806569 -56.63085938 144.94189453 C-58.95872766 145.98156695 -61.21829597 147.11001623 -63.484375 148.27734375 C-67 150 -67 150 -69 150 C-67.71620673 142.57313887 -65.69607207 135.57911644 -63.3125 128.4375 C-60.47825214 119.77984423 -57.84312884 111.09884154 -55.4375 102.3125 C-53.29079734 94.48138221 -51.01048133 86.72229931 -48.5 79 C-45.59768944 70.06443101 -42.99012901 61.06808717 -40.50195312 52.00878906 C-39.19675439 47.25840327 -37.87413915 42.52181012 -36.4140625 37.81640625 C-36.17381348 37.03692627 -35.93356445 36.25744629 -35.68603516 35.4543457 C-35.24494442 34.0370474 -34.79482065 32.62251193 -34.33349609 31.21166992 C-32.73301779 26.0452724 -33.33304889 23.00085332 -35 18 C-23.40722047 11.84655871 -11.76832751 5.81111897 0 0 Z " fill="#041645" transform="translate(274,332)"/>
<path d="M0 0 C0 0.99 0 1.98 0 3 C0.061875 3.99 0.12375 4.98 0.1875 6 C0 9 0 9 -1.5 10.6875 C-1.995 11.120625 -2.49 11.55375 -3 12 C-3 12.99 -3 13.98 -3 15 C-3.639375 15.2475 -4.27875 15.495 -4.9375 15.75 C-7.19060573 16.80148727 -7.19060573 16.80148727 -7.625 19.0625 C-7.810625 20.0215625 -7.810625 20.0215625 -8 21 C-8.66 21.33 -9.32 21.66 -10 22 C-10.40729228 24.32156597 -10.74438677 26.6568787 -11 29 C-13.8125 29.3125 -13.8125 29.3125 -17 29 C-19 26.75 -19 26.75 -20 24 C-19.1875 21.6875 -19.1875 21.6875 -18 20 C-18.99 20 -19.98 20 -21 20 C-21 19.34 -21 18.68 -21 18 C-23.64 18.66 -26.28 19.32 -29 20 C-29 17 -29 17 -28 16 C-31.39417765 19.12621626 -33.6062718 21.56541027 -35 26 C-32.69 26 -30.38 26 -28 26 C-28 26.66 -28 27.32 -28 28 C-27.34 28 -26.68 28 -26 28 C-26.66 30.31 -27.32 32.62 -28 35 C-30.64 35.33 -33.28 35.66 -36 36 C-35.505 35.01 -35.505 35.01 -35 34 C-34.34 34 -33.68 34 -33 34 C-32.67 32.68 -32.34 31.36 -32 30 C-33.91466367 30.12177688 -33.91466367 30.12177688 -36 31 C-37.77148372 33.47933197 -37.77148372 33.47933197 -39 36 C-38.34 36.66 -37.68 37.32 -37 38 C-37.56589844 38.30292969 -38.13179688 38.60585938 -38.71484375 38.91796875 C-43.41581954 41.40988637 -43.41581954 41.40988637 -46 45.8125 C-46 46.534375 -46 47.25625 -46 48 C-43.36 48 -40.72 48 -38 48 C-38 49.32 -38 50.64 -38 52 C-37.34 52 -36.68 52 -36 52 C-36.01160156 51.00097656 -36.02320313 50.00195312 -36.03515625 48.97265625 C-36.04417969 47.68230469 -36.05320312 46.39195312 -36.0625 45.0625 C-36.07410156 43.77472656 -36.08570313 42.48695313 -36.09765625 41.16015625 C-36 38 -36 38 -35 37 C-33.33382885 36.95936168 -31.66611905 36.957279 -30 37 C-30 37.66 -30 38.32 -30 39 C-28.68 38.01 -27.36 37.02 -26 36 C-25.01 37.98 -25.01 37.98 -24 40 C-22.35 40 -20.7 40 -19 40 C-19 41.65 -19 43.3 -19 45 C-18.01 45 -17.02 45 -16 45 C-16 45.99 -16 46.98 -16 48 C-17.65 48 -19.3 48 -21 48 C-21 47.01 -21 46.02 -21 45 C-22.65 45.99 -24.3 46.98 -26 48 C-25.73323796 49.98491642 -25.73323796 49.98491642 -25 52 C-23.515 52.495 -23.515 52.495 -22 53 C-22.94875 53.474375 -23.8975 53.94875 -24.875 54.4375 C-27.83752691 56.38928244 -28.57248363 57.99556339 -29.3125 61.4375 C-29.56413391 62.95477775 -29.79548162 64.47565633 -30 66 C-30.61910564 69.55985745 -30.94462401 70.91693601 -33 74 C-33.02639829 76.29714187 -33.02639829 76.29714187 -32.625 78.6875 C-32.51414062 79.49574219 -32.40328125 80.30398438 -32.2890625 81.13671875 C-32.19367188 81.75160156 -32.09828125 82.36648438 -32 83 C-32.44601562 82.50113281 -32.89203125 82.00226563 -33.3515625 81.48828125 C-33.89554687 80.99714844 -34.43953125 80.50601563 -35 80 C-38.59471546 80.28379333 -41.70389298 81.5873827 -45 83 C-45.92470553 87.71599818 -46.22923777 90.67265609 -44 95 C-42.02 95 -40.04 95 -38 95 C-37.67 93.35 -37.34 91.7 -37 90 C-36.01 90.495 -36.01 90.495 -35 91 C-35 92.65 -35 94.3 -35 96 C-32.525 95.01 -32.525 95.01 -30 94 C-29.01 95.98 -28.02 97.96 -27 100 C-25.35 99.67 -23.7 99.34 -22 99 C-21.92136719 98.38640625 -21.84273438 97.7728125 -21.76171875 97.140625 C-21 95 -21 95 -19.14453125 93.734375 C-12.95580102 91.12204666 -8.57407703 90.30346399 -2 92 C-0.33376361 92.03786901 1.33397597 92.04627845 3 92 C3.66 93.32 4.32 94.64 5 96 C5.78117187 95.75443359 5.78117187 95.75443359 6.578125 95.50390625 C9.6756875 94.85941341 12.58841094 94.90588411 15.75 94.9375 C17.50570312 94.95103516 17.50570312 94.95103516 19.296875 94.96484375 C20.63492188 94.98224609 20.63492188 94.98224609 22 95 C22.52634573 97.95814459 23.00749419 100.6777499 22.9375 103.6875 C22.80236652 106.2799027 22.80236652 106.2799027 25 109 C25.3125 111.9375 25.3125 111.9375 25 115 C24.50113281 115.58007812 24.00226563 116.16015625 23.48828125 116.7578125 C21.4047075 119.89684487 21.73978123 122.21102972 21.875 125.9375 C22.01112427 130.18003981 21.95125643 133.86648287 21 138 C20.79371915 139.60185991 20.60532699 141.206156 20.4375 142.8125 C20.31181641 143.99779297 20.31181641 143.99779297 20.18359375 145.20703125 C20.12300781 145.79871094 20.06242187 146.39039063 20 147 C20.99 147 21.98 147 23 147 C23.0825 147.78375 23.165 148.5675 23.25 149.375 C23.72806339 152.14749104 23.72806339 152.14749104 26.0625 153.3125 C27.0215625 153.6528125 27.0215625 153.6528125 28 154 C23.88031912 155.17705168 21.82942598 154.85669139 18 153 C13.16425169 149.16381978 9.56623223 144.91647346 7.06640625 139.2890625 C5.67184307 136.29560453 4.03402971 133.47975748 2.375 130.625 C1.78460938 129.60664062 1.19421875 128.58828125 0.5859375 127.5390625 C-1.46173379 124.26077102 -2.25402326 123.18268818 -6.0625 122.25 C-10.87703677 120.97018643 -15.38444825 118.42698556 -19 115 C-19 113.68 -19 112.36 -19 111 C-19.66 111 -20.32 111 -21 111 C-21 108.36 -21 105.72 -21 103 C-23.12127456 101.74602647 -23.12127456 101.74602647 -26.3125 102.0625 C-30 102 -30 102 -32.2109375 101.00390625 C-35.92049832 99.66867217 -39.42810183 99.78474589 -43.3125 99.875 C-44.05306641 99.88402344 -44.79363281 99.89304687 -45.55664062 99.90234375 C-47.37123467 99.92575787 -49.18566071 99.96162385 -51 100 C-51 98.68 -51 97.36 -51 96 C-51.70125 95.773125 -52.4025 95.54625 -53.125 95.3125 C-56.69343613 93.68343133 -59.06514511 91.59359269 -62 89 C-61.21625 89.7425 -60.4325 90.485 -59.625 91.25 C-57.43495469 93.54433318 -56.17268614 95.12158858 -55 98 C-55.99 97.67 -56.98 97.34 -58 97 C-58 96.34 -58 95.68 -58 95 C-58.99 95 -59.98 95 -61 95 C-62.35278115 93.01310269 -63.68568305 91.01254782 -65 89 C-66.485 88.505 -66.485 88.505 -68 88 C-70.40070303 84.39894546 -70.22466936 82.58846542 -70.3125 78.3125 C-70.66887341 71.69903191 -71.95631612 68.1842101 -76 63 C-80.26469432 63.25086437 -82.43413639 63.49993448 -85.6875 66.375 C-86.450625 67.24125 -87.21375 68.1075 -88 69 C-89.31175986 70.02813611 -90.6369893 71.04084432 -92 72 C-93.32 71.34 -94.64 70.68 -96 70 C-95.505 69.236875 -95.01 68.47375 -94.5 67.6875 C-92.75631692 65.07636249 -92.75631692 65.07636249 -93 62 C-88.2213496 53.74739651 -81.39305643 51.13010946 -72.8046875 48.38671875 C-69.09852373 47.16989413 -66.21391387 45.20956578 -63 43 C-60.125 42.75 -60.125 42.75 -58 43 C-58.33 42.01 -58.66 41.02 -59 40 C-59.66 40 -60.32 40 -61 40 C-61 40.66 -61 41.32 -61 42 C-61.99 41.67 -62.98 41.34 -64 41 C-59.94612259 36.18602057 -56.9782058 35.11458074 -51 34 C-50 37.875 -50 37.875 -50 39 C-49.34 39 -48.68 39 -48 39 C-47.67 38.01 -47.34 37.02 -47 36 C-46.67 35.67 -46.34 35.34 -46 35 C-46.99 34.34 -47.98 33.68 -49 33 C-48.01 32.34 -47.02 31.68 -46 31 C-45.54625 31.495 -45.0925 31.99 -44.625 32.5 C-43.12364481 34.22609337 -43.12364481 34.22609337 -41 34 C-40.505 33.01 -40.505 33.01 -40 32 C-40.66 32 -41.32 32 -42 32 C-41.505 30.515 -41.505 30.515 -41 29 C-41 28.67 -41 28.34 -41 28 C-41.99 27.67 -42.98 27.34 -44 27 C-44 26.34 -44 25.68 -44 25 C-42.35 25.33 -40.7 25.66 -39 26 C-39 25.34 -39 24.68 -39 24 C-39.99 24 -40.98 24 -42 24 C-40.49117867 19.63795884 -37.6775581 18.34941819 -33.75 16.1875 C-33.13318359 15.84493164 -32.51636719 15.50236328 -31.88085938 15.14941406 C-26.39511538 12.13420017 -20.79578887 9.3549825 -15.15625 6.640625 C-11.92138393 5.03531506 -11.92138393 5.03531506 -8.8046875 2.84375 C-5.77309302 0.85083553 -3.57778128 0.34074107 0 0 Z " fill="#FAFAFB" transform="translate(330,467)"/>
<path d="M0 0 C2.0373094 1.37969687 3.6254634 2.6879634 5.375 4.4375 C5.94748078 9.9714809 4.67651376 13.87607406 2.125 18.6875 C1.82464844 19.29851562 1.52429688 19.90953125 1.21484375 20.5390625 C-0.58056707 24.03820359 -2.25172618 26.37771333 -5.625 28.4375 C-5.955 27.4475 -6.285 26.4575 -6.625 25.4375 C-8.275 25.4375 -9.925 25.4375 -11.625 25.4375 C-11.5321875 26.02917969 -11.439375 26.62085938 -11.34375 27.23046875 C-11.10830176 29.80778613 -11.09188607 31.89987771 -11.625 34.4375 C-16.83442485 40.43490508 -26.71801022 42.08812905 -34.20703125 42.7578125 C-45.76966402 43.11505141 -59.81637756 40.82058353 -68.625 32.5625 C-69.9885556 29.66494434 -69.86440731 27.62702324 -69.625 24.4375 C-64.14032878 11.1435287 -54.3846668 2.67902815 -41.7265625 -3.28515625 C-29.29397152 -8.40537949 -11.44275625 -6.90652074 0 0 Z " fill="#031443" transform="translate(253.625,149.5625)"/>
<path d="M0 0 C0.66 0.33 1.32 0.66 2 1 C2 1.66 2 2.32 2 3 C2.99 3.33 3.98 3.66 5 4 C5.33 4.66 5.66 5.32 6 6 C6.99 6.33 7.98 6.66 9 7 C9 7.66 9 8.32 9 9 C9.639375 9.309375 10.27875 9.61875 10.9375 9.9375 C13 11 13 11 14 12 C14.69073416 18.07049058 13.97841495 23.6237086 11 29 C9 31 9 31 7 32 C6.01 32 5.02 32 4 32 C4 31.34 4 30.68 4 30 C-1.73969744 28.65827956 -1.73969744 28.65827956 -6.9375 30.8125 C-9.03157037 32.8229735 -9.03157037 32.8229735 -10 35 C-10.99 35 -11.98 35 -13 35 C-13.33 35.99 -13.66 36.98 -14 38 C-14.99 38 -15.98 38 -17 38 C-17.47553627 36.33562306 -17.94774813 34.670218 -18.40234375 33 C-18.96764094 31.10828652 -19.69870215 29.26843379 -20.4375 27.4375 C-20.623125 26.303125 -20.80875 25.16875 -21 24 C-18.8125 21.0625 -18.8125 21.0625 -17.3828125 19.62109375 C-14.97345009 16.79655872 -14.1449411 13.49508335 -13 10 C-12.01 10 -11.02 10 -10 10 C-9.67 8.35 -9.34 6.7 -9 5 C-7.1875 4.3125 -7.1875 4.3125 -5 4 C-3.4375 5.375 -3.4375 5.375 -2 7 C-1.01 7.33 -0.02 7.66 1 8 C0.67 5.36 0.34 2.72 0 0 Z " fill="#FAFAFB" transform="translate(507,491)"/>
<path d="M0 0 C0 0.99 0 1.98 0 3 C0.061875 3.99 0.12375 4.98 0.1875 6 C0 9 0 9 -1.5 10.6875 C-1.995 11.120625 -2.49 11.55375 -3 12 C-3 12.99 -3 13.98 -3 15 C-3.639375 15.2475 -4.27875 15.495 -4.9375 15.75 C-7.19060573 16.80148727 -7.19060573 16.80148727 -7.625 19.0625 C-7.810625 20.0215625 -7.810625 20.0215625 -8 21 C-8.99 21.495 -8.99 21.495 -10 22 C-10.40729228 24.32156597 -10.74438677 26.6568787 -11 29 C-13.8125 29.3125 -13.8125 29.3125 -17 29 C-19 26.75 -19 26.75 -20 24 C-19.1875 21.6875 -19.1875 21.6875 -18 20 C-18.99 20 -19.98 20 -21 20 C-21 19.34 -21 18.68 -21 18 C-23.64 18.66 -26.28 19.32 -29 20 C-29 17 -29 17 -28 16 C-31.39417765 19.12621626 -33.6062718 21.56541027 -35 26 C-32.69 26 -30.38 26 -28 26 C-28 26.66 -28 27.32 -28 28 C-27.34 28 -26.68 28 -26 28 C-26.99 31.465 -26.99 31.465 -28 35 C-30.64 35.33 -33.28 35.66 -36 36 C-35.67 35.34 -35.34 34.68 -35 34 C-34.34 34 -33.68 34 -33 34 C-32.67 32.68 -32.34 31.36 -32 30 C-33.91466367 30.12177688 -33.91466367 30.12177688 -36 31 C-37.77148372 33.47933197 -37.77148372 33.47933197 -39 36 C-38.34 36.66 -37.68 37.32 -37 38 C-37.99 38.66 -38.98 39.32 -40 40 C-40.99 39.67 -41.98 39.34 -43 39 C-42.01 36.69 -41.02 34.38 -40 32 C-40.66 32 -41.32 32 -42 32 C-41.67 31.01 -41.34 30.02 -41 29 C-41 28.67 -41 28.34 -41 28 C-41.99 27.67 -42.98 27.34 -44 27 C-44 26.34 -44 25.68 -44 25 C-42.35 25.33 -40.7 25.66 -39 26 C-39 25.34 -39 24.68 -39 24 C-39.99 24 -40.98 24 -42 24 C-40.49117867 19.63795884 -37.6775581 18.34941819 -33.75 16.1875 C-33.13318359 15.84493164 -32.51636719 15.50236328 -31.88085938 15.14941406 C-26.39511538 12.13420017 -20.79578887 9.3549825 -15.15625 6.640625 C-11.92138393 5.03531506 -11.92138393 5.03531506 -8.8046875 2.84375 C-5.77309302 0.85083553 -3.57778128 0.34074107 0 0 Z " fill="#F4F5F7" transform="translate(330,467)"/>
<path d="M0 0 C0.66 0 1.32 0 2 0 C3.70549326 4.24299971 5.38623294 8.4953784 7.0625 12.75 C7.79049805 14.55984375 7.79049805 14.55984375 8.53320312 16.40625 C9.21479492 18.14648438 9.21479492 18.14648438 9.91015625 19.921875 C10.54642944 21.52434082 10.54642944 21.52434082 11.19555664 23.15917969 C12.02053268 26.07250933 12.37175918 27.31535543 11 30 C9.05053711 31.37207031 9.05053711 31.37207031 6.52734375 32.578125 C5.62822266 33.01640625 4.72910156 33.4546875 3.80273438 33.90625 C2.85720703 34.3496875 1.91167969 34.793125 0.9375 35.25 C-0.4865918 35.93835938 -0.4865918 35.93835938 -1.93945312 36.640625 C-4.28719664 37.77320479 -6.64047009 38.89223948 -9 40 C-10.13519902 36.59440293 -9.8373325 35.55459294 -8.92578125 32.16796875 C-8.67199707 31.21027588 -8.41821289 30.25258301 -8.15673828 29.26586914 C-7.87813965 28.25000732 -7.59954102 27.23414551 -7.3125 26.1875 C-7.03647949 25.15681396 -6.76045898 24.12612793 -6.47607422 23.06420898 C-4.40075649 15.35269532 -2.2569732 7.66043256 0 0 Z " fill="#F5F6F8" transform="translate(259,375)"/>
<path d="M0 0 C7.625 1.875 7.625 1.875 11 3 C11.33 2.01 11.66 1.02 12 0 C12.99 0.33 13.98 0.66 15 1 C15 1.66 15 2.32 15 3 C18.465 2.505 18.465 2.505 22 2 C22 1.34 22 0.68 22 0 C22.66 0 23.32 0 24 0 C24.495 3.465 24.495 3.465 25 7 C21.14243493 9.15305957 18.44870215 10.39253254 14 10 C14 10.99 14 11.98 14 13 C9.545 13.495 9.545 13.495 5 14 C4.67 13.01 4.34 12.02 4 11 C0.61068455 12.06521343 -1.0706732 13.0706732 -3.625 15.625 C-4.40875 16.40875 -5.1925 17.1925 -6 18 C-6.99 18 -7.98 18 -9 18 C-9.33 18.99 -9.66 19.98 -10 21 C-9.625 18.5625 -9.625 18.5625 -9 16 C-8.34 15.67 -7.68 15.34 -7 15 C-6.53348793 12.87423218 -6.53348793 12.87423218 -6.375 10.4375 C-6.30023438 9.61121094 -6.22546875 8.78492188 -6.1484375 7.93359375 C-6.09945313 7.29550781 -6.05046875 6.65742188 -6 6 C-5.01 6 -4.02 6 -3 6 C-2.67 5.01 -2.34 4.02 -2 3 C0.64 3.66 3.28 4.32 6 5 C5.38125 4.690625 4.7625 4.38125 4.125 4.0625 C2.75 3.375 1.375 2.6875 0 2 C0 1.34 0 0.68 0 0 Z " fill="#13234F" transform="translate(365,489)"/>
<path d="M0 0 C0.66 0.33 1.32 0.66 2 1 C1.01 3.97 0.02 6.94 -1 10 C1.31 10 3.62 10 6 10 C6 10.66 6 11.32 6 12 C6.66 12 7.32 12 8 12 C7.34 14.31 6.68 16.62 6 19 C2.04 19.495 2.04 19.495 -2 20 C-1.67 19.34 -1.34 18.68 -1 18 C-0.34 18 0.32 18 1 18 C1.33 16.68 1.66 15.36 2 14 C0.08533633 14.12177688 0.08533633 14.12177688 -2 15 C-3.77148372 17.47933197 -3.77148372 17.47933197 -5 20 C-4.34 20.66 -3.68 21.32 -3 22 C-3.99 22.66 -4.98 23.32 -6 24 C-6.99 23.67 -7.98 23.34 -9 23 C-7.515 19.535 -7.515 19.535 -6 16 C-6.66 16 -7.32 16 -8 16 C-7.67 15.01 -7.34 14.02 -7 13 C-7 12.67 -7 12.34 -7 12 C-7.99 11.67 -8.98 11.34 -10 11 C-10 10.34 -10 9.68 -10 9 C-7.525 9.495 -7.525 9.495 -5 10 C-5 9.34 -5 8.68 -5 8 C-5.99 8 -6.98 8 -8 8 C-6.49776416 3.79373966 -3.71449966 2.26099979 0 0 Z " fill="#EEEFF2" transform="translate(296,483)"/>
<path d="M0 0 C2.12982862 0.36897031 4.2539326 0.77110824 6.375 1.1875 C7.55835938 1.40792969 8.74171875 1.62835938 9.9609375 1.85546875 C13 3 13 3 14.2890625 5.48828125 C14.52367187 6.31714844 14.75828125 7.14601563 15 8 C15.66 8.66 16.32 9.32 17 10 C16.625 12.125 16.625 12.125 16 14 C14.68 14.33 13.36 14.66 12 15 C12.33 16.32 12.66 17.64 13 19 C9.66940318 18.42575917 8.22854819 17.50711671 6 15 C5.278125 14.319375 4.55625 13.63875 3.8125 12.9375 C2 11 2 11 2 9 C2.66 9 3.32 9 4 9 C2.09115308 4.45829004 2.09115308 4.45829004 0 0 Z " fill="#26355D" transform="translate(458,436)"/>
<path d="M0 0 C0.99 0.33 1.98 0.66 3 1 C2.125 4.875 2.125 4.875 1 6 C2.65 6 4.3 6 6 6 C6.33 7.32 6.66 8.64 7 10 C6.34 10 5.68 10 5 10 C5 9.34 5 8.68 5 8 C3.35 8.33 1.7 8.66 0 9 C0.020625 10.19625 0.04125 11.3925 0.0625 12.625 C0.06882571 16.18004869 -0.30111125 19.50555624 -1 23 C-1.66 23 -2.32 23 -3 23 C-3 21.68 -3 20.36 -3 19 C-3.66 19.33 -4.32 19.66 -5 20 C-6.99960012 20.039992 -9.00047242 20.04346799 -11 20 C-11.75 17.75 -11.75 17.75 -12 15 C-9.75010389 12.083468 -7.36573933 10.44245971 -4 9 C-4 8.01 -4 7.02 -4 6 C-1.57894737 1.57894737 -1.57894737 1.57894737 0 0 Z " fill="#0B1C49" transform="translate(295,496)"/>
<path d="M0 0 C2.0625 0.4375 2.0625 0.4375 4 1 C3.01 1 2.02 1 1 1 C2.79453218 3.95570006 4.56097889 5.42420142 7.5625 7 C10.98191708 8.98947903 11.65419707 9.52334243 13 13 C14.03959519 14.87359395 14.03959519 14.87359395 16 16 C18.71815286 16.2529766 21.25911949 16.1347974 24 16 C23.67 16.66 23.34 17.32 23 18 C19.10986797 18.99160228 16.76928553 19.30450886 13 17.8125 C12.01 17.214375 11.02 16.61625 10 16 C8.7502218 15.31209687 7.50021809 14.62460333 6.25 13.9375 C3 12 3 12 1 10 C2.32 9.67 3.64 9.34 5 9 C4.195625 8.236875 3.39125 7.47375 2.5625 6.6875 C0 4 0 4 -1 1 C-0.67 0.67 -0.34 0.34 0 0 Z " fill="#DFE1E7" transform="translate(457,484)"/>
<path d="M0 0 C1.258125 -0.020625 2.51625 -0.04125 3.8125 -0.0625 C4.52019531 -0.07410156 5.22789062 -0.08570313 5.95703125 -0.09765625 C8 0 8 0 11 1 C12.6875 3.0625 12.6875 3.0625 14 5 C11 5 11 5 8 4 C8 4.99 8 5.98 8 7 C6.35 7.33 4.7 7.66 3 8 C3 7.01 3 6.02 3 5 C0.03 5 -2.94 5 -6 5 C-6 4.01 -6 3.02 -6 2 C-4.35 2.33 -2.7 2.66 -1 3 C-0.67 2.01 -0.34 1.02 0 0 Z " fill="#EAEBEF" transform="translate(499,482)"/>
<path d="M0 0 C0.99 0.33 1.98 0.66 3 1 C3 2.32 3 3.64 3 5 C3.66 5 4.32 5 5 5 C5 7.31 5 9.62 5 12 C3.02 12.33 1.04 12.66 -1 13 C-1.99 11.68 -2.98 10.36 -4 9 C-3.34 9 -2.68 9 -2 9 C-1.34 6.03 -0.68 3.06 0 0 Z " fill="#EAEBEF" transform="translate(476,483)"/>
<path d="M0 0 C0.99 0.66 1.98 1.32 3 2 C3 3.32 3 4.64 3 6 C3.33 6.66 3.66 7.32 4 8 C2.576875 8.8971875 2.576875 8.8971875 1.125 9.8125 C-2.13964197 11.81562526 -2.13964197 11.81562526 -4 15 C-4.99 15 -5.98 15 -7 15 C-7.33 15.99 -7.66 16.98 -8 18 C-7.625 15.5625 -7.625 15.5625 -7 13 C-6.34 12.67 -5.68 12.34 -5 12 C-4.53348793 9.87423218 -4.53348793 9.87423218 -4.375 7.4375 C-4.30023438 6.61121094 -4.22546875 5.78492188 -4.1484375 4.93359375 C-4.09945313 4.29550781 -4.05046875 3.65742188 -4 3 C-3.01 3 -2.02 3 -1 3 C-0.67 2.01 -0.34 1.02 0 0 Z " fill="#12234F" transform="translate(363,492)"/>
<path d="M0 0 C0.66 0 1.32 0 2 0 C2 0.99 2 1.98 2 3 C3.98 2.67 5.96 2.34 8 2 C8 2.66 8 3.32 8 4 C7.34 4 6.68 4 6 4 C6.12375 4.9075 6.2475 5.815 6.375 6.75 C6 10 6 10 3.125 12.375 C0 14 0 14 -2 14 C-2.33 13.34 -2.66 12.68 -3 12 C-3.66 12.66 -4.32 13.32 -5 14 C-5 12.68 -5 11.36 -5 10 C-2.525 10.495 -2.525 10.495 0 11 C0.33 9.02 0.66 7.04 1 5 C0.34 5 -0.32 5 -1 5 C-0.67 3.35 -0.34 1.7 0 0 Z " fill="#28375F" transform="translate(360,468)"/>
<path d="M0 0 C0.99 0.33 1.98 0.66 3 1 C4.69262664 5.380916 5.30153263 10.32624426 5 15 C3.125 14.8125 3.125 14.8125 1 14 C-1.91074667 9.5645765 -0.79924698 4.95749142 0 0 Z " fill="#ECEDF0" transform="translate(427,534)"/>
<path d="M0 0 C0.66 1.32 1.32 2.64 2 4 C1.01 4.33 0.02 4.66 -1 5 C-1.33 5.99 -1.66 6.98 -2 8 C-3.65 8 -5.3 8 -7 8 C-7 7.34 -7 6.68 -7 6 C-7.66 6 -8.32 6 -9 6 C-9 6.66 -9 7.32 -9 8 C-9.99 7.67 -10.98 7.34 -12 7 C-8.17819158 2.5991297 -5.52628901 1.19194469 0 0 Z " fill="#DCDFE5" transform="translate(278,501)"/>
<path d="M0 0 C0.66 0.33 1.32 0.66 2 1 C0.92452692 4.48579803 -0.21929782 7.8077656 -2 11 C-5.125 12.1875 -5.125 12.1875 -8 12 C-8.66 11.67 -9.32 11.34 -10 11 C-10 10.34 -10 9.68 -10 9 C-7.525 9.495 -7.525 9.495 -5 10 C-5 9.34 -5 8.68 -5 8 C-5.99 8 -6.98 8 -8 8 C-6.49776416 3.79373966 -3.71449966 2.26099979 0 0 Z " fill="#EAEBEF" transform="translate(296,483)"/>
<path d="M0 0 C2.49361571 1.20381448 4.68143083 2.45428722 7 4 C6.67 5.32 6.34 6.64 6 8 C3.69 8.33 1.38 8.66 -1 9 C-1.33 7.35 -1.66 5.7 -2 4 C-1.34 4 -0.68 4 0 4 C0 2.68 0 1.36 0 0 Z " fill="#E3E5EA" transform="translate(346,483)"/>
<path d="M0 0 C0.88751953 0.59748047 0.88751953 0.59748047 1.79296875 1.20703125 C6.74885537 4.53153864 6.74885537 4.53153864 11.8125 7.6875 C13.9948577 8.99691462 15.99233831 10.43848535 18 12 C17.67 12.66 17.34 13.32 17 14 C4.44286284 7.43075695 4.44286284 7.43075695 0 3 C0 2.01 0 1.02 0 0 Z " fill="#28365E" transform="translate(392,497)"/>
<path d="M0 0 C0.99 0 1.98 0 3 0 C3 0.66 3 1.32 3 2 C4.65 2 6.3 2 8 2 C7 5 7 5 5 7 C5.66 7 6.32 7 7 7 C6.67 7.99 6.34 8.98 6 10 C3 9 3 9 1.9375 7.1875 C1.628125 6.465625 1.31875 5.74375 1 5 C0.62875 4.2575 0.2575 3.515 -0.125 2.75 C-0.41375 2.1725 -0.7025 1.595 -1 1 C-0.67 0.67 -0.34 0.34 0 0 Z " fill="#5E6886" transform="translate(283,492)"/>
<path d="M0 0 C2.0625 0.4375 2.0625 0.4375 4 1 C3.01 1 2.02 1 1 1 C3.5462459 5.19381678 6.76671596 6.76354806 11 9 C11 9.99 11 10.98 11 12 C8.16157499 11.91651691 6.45950686 11.4276272 4.3671875 9.48046875 C1.91937326 6.67198623 0.19028853 4.57086558 -1 1 C-0.67 0.67 -0.34 0.34 0 0 Z " fill="#C0C4D0" transform="translate(457,484)"/>
<path d="M0 0 C1.9375 0.75 1.9375 0.75 4 2 C4.875 4 4.875 4 5 6 C4.34 6.66 3.68 7.32 3 8 C2.01 8 1.02 8 0 8 C0.33 9.32 0.66 10.64 1 12 C0.01 11.67 -0.98 11.34 -2 11 C-1.53078003 8.58686871 -1.0498364 6.19380821 -0.4375 3.8125 C0.07821351 1.98673164 0.07821351 1.98673164 0 0 Z " fill="#DDDFE5" transform="translate(470,443)"/>
<path d="M0 0 C2.05078125 0.03255208 4.1015625 0.06510417 6.15234375 0.09765625 C5.82234375 1.41765625 5.49234375 2.73765625 5.15234375 4.09765625 C3.17234375 4.42765625 1.19234375 4.75765625 -0.84765625 5.09765625 C-1.50765625 3.77765625 -2.16765625 2.45765625 -2.84765625 1.09765625 C-1.84765625 0.09765625 -1.84765625 0.09765625 0 0 Z " fill="#354369" transform="translate(366.84765625,493.90234375)"/>
<path d="M0 0 C2.8125 -0.3125 2.8125 -0.3125 6 0 C7.875 2.5 7.875 2.5 9 5 C2.25 4.125 2.25 4.125 0 3 C0 2.01 0 1.02 0 0 Z " fill="#E5E6EB" transform="translate(461,425)"/>
<path d="M0 0 C0.99773437 0.02320313 1.99546875 0.04640625 3.0234375 0.0703125 C4.52777344 0.09738281 4.52777344 0.09738281 6.0625 0.125 C6.83335937 0.14820313 7.60421875 0.17140625 8.3984375 0.1953125 C8.7284375 0.8553125 9.0584375 1.5153125 9.3984375 2.1953125 C8.7384375 2.1953125 8.0784375 2.1953125 7.3984375 2.1953125 C7.3984375 2.8553125 7.3984375 3.5153125 7.3984375 4.1953125 C6.4084375 4.1953125 5.4184375 4.1953125 4.3984375 4.1953125 C4.3984375 3.5353125 4.3984375 2.8753125 4.3984375 2.1953125 C1.4284375 2.1953125 -1.5415625 2.1953125 -4.6015625 2.1953125 C-2.6015625 0.1953125 -2.6015625 0.1953125 0 0 Z " fill="#A9AEBE" transform="translate(301.6015625,550.8046875)"/>
<path d="M0 0 C0.99 0.33 1.98 0.66 3 1 C2.67 2.32 2.34 3.64 2 5 C0.68 5.33 -0.64 5.66 -2 6 C-2 6.66 -2 7.32 -2 8 C-2.99 7.67 -3.98 7.34 -5 7 C-1.125 1.125 -1.125 1.125 0 0 Z " fill="#3A476C" transform="translate(295,496)"/>
<path d="M0 0 C0.66 0.33 1.32 0.66 2 1 C2.625 4.0625 2.625 4.0625 3 7 C2.34 7 1.68 7 1 7 C0.67 7.66 0.34 8.32 0 9 C-1.76462683 5.91190305 -2 4.76687864 -2 1 C-1.34 0.67 -0.68 0.34 0 0 Z " fill="#B3B8C6" transform="translate(484,486)"/>
<path d="M0 0 C0 0.66 0 1.32 0 2 C0.66 2.33 1.32 2.66 2 3 C1.67 3.66 1.34 4.32 1 5 C-4.44927536 6.27536232 -4.44927536 6.27536232 -7 5 C-7 4.34 -7 3.68 -7 3 C-4.525 3.495 -4.525 3.495 -2 4 C-2 3.34 -2 2.68 -2 2 C-2.99 1.67 -3.98 1.34 -5 1 C-2 0 -2 0 0 0 Z " fill="#B6BAC8" transform="translate(293,489)"/>
<path d="M0 0 C3.3 0 6.6 0 10 0 C9.67 1.32 9.34 2.64 9 4 C5.625 3.6875 5.625 3.6875 2 3 C1.34 2.01 0.68 1.02 0 0 Z " fill="#24335C" transform="translate(403,490)"/>
<path d="M0 0 C3.87132028 0.57352893 6.08172796 2.48704352 9 5 C8.67 5.66 8.34 6.32 8 7 C5.36 5.68 2.72 4.36 0 3 C0 2.01 0 1.02 0 0 Z " fill="#1E2E57" transform="translate(401,504)"/>
<path d="M0 0 C1.65 0 3.3 0 5 0 C5 1.32 5 2.64 5 4 C3.68 4.33 2.36 4.66 1 5 C0.67 3.35 0.34 1.7 0 0 Z " fill="#7D869E" transform="translate(344,487)"/>
<path d="M0 0 C0.66 0.33 1.32 0.66 2 1 C0.02 1.99 0.02 1.99 -2 3 C-2 3.99 -2 4.98 -2 6 C-3.65 6 -5.3 6 -7 6 C-7 5.34 -7 4.68 -7 4 C-1.7265625 0.77734375 -1.7265625 0.77734375 0 0 Z " fill="#C4C8D2" transform="translate(353,456)"/>
<path d="M0 0 C1.65 0 3.3 0 5 0 C5 0.66 5 1.32 5 2 C4.34 2 3.68 2 3 2 C3 2.66 3 3.32 3 4 C1.35 4.33 -0.3 4.66 -2 5 C-1.34 3.35 -0.68 1.7 0 0 Z " fill="#E5E6EB" transform="translate(230,529)"/>
<path d="M0 0 C0.33 0.66 0.66 1.32 1 2 C0.07421875 3.9453125 0.07421875 3.9453125 -1.3125 6.125 C-1.76238281 6.84945312 -2.21226562 7.57390625 -2.67578125 8.3203125 C-3.11277344 8.87460937 -3.54976562 9.42890625 -4 10 C-4.66 10 -5.32 10 -6 10 C-4.6302836 6.00499382 -2.74277578 3.19990508 0 0 Z " fill="#D6D9E0" transform="translate(537,514)"/>
<path d="M0 0 C0.66 0 1.32 0 2 0 C2 1.65 2 3.3 2 5 C2.99 5 3.98 5 5 5 C5 5.99 5 6.98 5 8 C3.35 8 1.7 8 0 8 C0 5.36 0 2.72 0 0 Z " fill="#CACDD7" transform="translate(309,507)"/>
<path d="M0 0 C0.99 0.66 1.98 1.32 3 2 C-0.75 5 -0.75 5 -3 5 C-3.33 4.34 -3.66 3.68 -4 3 C-4.66 3.66 -5.32 4.32 -6 5 C-6 3.68 -6 2.36 -6 1 C-3.525 1.495 -3.525 1.495 -1 2 C-0.67 1.34 -0.34 0.68 0 0 Z " fill="#334066" transform="translate(361,477)"/>
<path d="M0 0 C0.99 0.33 1.98 0.66 3 1 C2.34 1 1.68 1 1 1 C1 2.65 1 4.3 1 6 C-0.65 6.33 -2.3 6.66 -4 7 C-4 6.34 -4 5.68 -4 5 C-3.01 4.67 -2.02 4.34 -1 4 C-1.99 3.34 -2.98 2.68 -4 2 C-2.68 2 -1.36 2 0 2 C0 1.34 0 0.68 0 0 Z " fill="#2D3A61" transform="translate(371,458)"/>
<path d="M0 0 C0 0.99 0 1.98 0 3 C-0.66 3 -1.32 3 -2 3 C-2 2.34 -2 1.68 -2 1 C-3.65 1.33 -5.3 1.66 -7 2 C-7.33 1.01 -7.66 0.02 -8 -1 C-4.37673261 -2.2077558 -3.35853631 -1.54311128 0 0 Z " fill="#A7ACBC" transform="translate(392,449)"/>
<path d="M0 0 C0.66 0.99 1.32 1.98 2 3 C1.67 3.33 1.34 3.66 1 4 C1.66 4.66 2.32 5.32 3 6 C2.01 6.66 1.02 7.32 0 8 C-0.99 7.67 -1.98 7.34 -3 7 C-2.01 4.69 -1.02 2.38 0 0 Z " fill="#D4D7DF" transform="translate(290,499)"/>
<path d="M0 0 C-0.75 1.9375 -0.75 1.9375 -2 4 C-4.125 4.75 -4.125 4.75 -6 5 C-6.33 4.01 -6.66 3.02 -7 2 C-4.35261084 0.5393715 -3.10551666 0 0 0 Z " fill="#D8DBE2" transform="translate(337,480)"/>
<path d="M0 0 C-1 3 -1 3 -3 4 C-3 5.32 -3 6.64 -3 8 C-3.99 8.33 -4.98 8.66 -6 9 C-6.25 6.75 -6.25 6.75 -6 4 C-2.75675676 0 -2.75675676 0 0 0 Z " fill="#D0D2DB" transform="translate(380,446)"/>
<path d="M0 0 C0.99 0.33 1.98 0.66 3 1 C3 1.66 3 2.32 3 3 C4.32 3.33 5.64 3.66 7 4 C5.02 4.33 3.04 4.66 1 5 C0.34 3.68 -0.32 2.36 -1 1 C-0.67 0.67 -0.34 0.34 0 0 Z " fill="#25345C" transform="translate(377,489)"/>
<path d="M0 0 C0.99 0.33 1.98 0.66 3 1 C3 1.66 3 2.32 3 3 C3.99 3.33 4.98 3.66 6 4 C5.67 4.66 5.34 5.32 5 6 C3.0625 5.25 3.0625 5.25 1 4 C0.25 1.875 0.25 1.875 0 0 Z " fill="#CFD1DA" transform="translate(472,470)"/>
</svg>
